<mxfile host="app.diagrams.net" modified="2023-11-10T07:07:22.433Z" agent="Mozilla/5.0 (Windows NT 10.0; Win64; x64) AppleWebKit/537.36 (KHTML, like Gecko) Chrome/119.0.0.0 Safari/537.36 Edg/119.0.0.0" etag="UKQWlzgEpuAIInbYpnG8" version="22.1.0" type="device">
  <diagram name="Page-1" id="jWzO4863aF5EvBoZZOfk">
    <mxGraphModel dx="1934" dy="1728" grid="1" gridSize="10" guides="1" tooltips="1" connect="1" arrows="1" fold="1" page="1" pageScale="1" pageWidth="850" pageHeight="1100" math="0" shadow="0">
      <root>
        <mxCell id="0" />
        <mxCell id="1" parent="0" />
        <mxCell id="8j3Ye4iT-XWdY-mnnjZ5-61" style="edgeStyle=orthogonalEdgeStyle;rounded=0;orthogonalLoop=1;jettySize=auto;html=1;" edge="1" parent="1" source="8j3Ye4iT-XWdY-mnnjZ5-1" target="8j3Ye4iT-XWdY-mnnjZ5-28">
          <mxGeometry relative="1" as="geometry" />
        </mxCell>
        <mxCell id="8j3Ye4iT-XWdY-mnnjZ5-62" style="edgeStyle=orthogonalEdgeStyle;rounded=0;orthogonalLoop=1;jettySize=auto;html=1;entryX=0;entryY=0.5;entryDx=0;entryDy=0;" edge="1" parent="1" source="8j3Ye4iT-XWdY-mnnjZ5-1" target="8j3Ye4iT-XWdY-mnnjZ5-29">
          <mxGeometry relative="1" as="geometry" />
        </mxCell>
        <mxCell id="8j3Ye4iT-XWdY-mnnjZ5-63" style="edgeStyle=orthogonalEdgeStyle;rounded=0;orthogonalLoop=1;jettySize=auto;html=1;entryX=0;entryY=0.5;entryDx=0;entryDy=0;" edge="1" parent="1" source="8j3Ye4iT-XWdY-mnnjZ5-1" target="8j3Ye4iT-XWdY-mnnjZ5-19">
          <mxGeometry relative="1" as="geometry" />
        </mxCell>
        <mxCell id="8j3Ye4iT-XWdY-mnnjZ5-1" value="Patient" style="shape=umlActor;verticalLabelPosition=bottom;verticalAlign=top;html=1;outlineConnect=0;" vertex="1" parent="1">
          <mxGeometry x="30" y="-180" width="30" height="60" as="geometry" />
        </mxCell>
        <mxCell id="8j3Ye4iT-XWdY-mnnjZ5-64" style="edgeStyle=orthogonalEdgeStyle;rounded=0;orthogonalLoop=1;jettySize=auto;html=1;entryX=0;entryY=0.5;entryDx=0;entryDy=0;" edge="1" parent="1" source="8j3Ye4iT-XWdY-mnnjZ5-2" target="8j3Ye4iT-XWdY-mnnjZ5-7">
          <mxGeometry relative="1" as="geometry" />
        </mxCell>
        <mxCell id="8j3Ye4iT-XWdY-mnnjZ5-68" style="edgeStyle=orthogonalEdgeStyle;rounded=0;orthogonalLoop=1;jettySize=auto;html=1;entryX=0;entryY=0.5;entryDx=0;entryDy=0;" edge="1" parent="1" source="8j3Ye4iT-XWdY-mnnjZ5-2" target="8j3Ye4iT-XWdY-mnnjZ5-15">
          <mxGeometry relative="1" as="geometry" />
        </mxCell>
        <mxCell id="8j3Ye4iT-XWdY-mnnjZ5-2" value="Doctor" style="shape=umlActor;verticalLabelPosition=bottom;verticalAlign=top;html=1;outlineConnect=0;" vertex="1" parent="1">
          <mxGeometry x="280" y="-20" width="30" height="60" as="geometry" />
        </mxCell>
        <mxCell id="8j3Ye4iT-XWdY-mnnjZ5-74" style="edgeStyle=orthogonalEdgeStyle;rounded=0;orthogonalLoop=1;jettySize=auto;html=1;entryX=0;entryY=0.5;entryDx=0;entryDy=0;" edge="1" parent="1" source="8j3Ye4iT-XWdY-mnnjZ5-3" target="8j3Ye4iT-XWdY-mnnjZ5-25">
          <mxGeometry relative="1" as="geometry" />
        </mxCell>
        <mxCell id="8j3Ye4iT-XWdY-mnnjZ5-86" style="edgeStyle=orthogonalEdgeStyle;rounded=0;orthogonalLoop=1;jettySize=auto;html=1;entryX=0;entryY=0.5;entryDx=0;entryDy=0;" edge="1" parent="1" source="8j3Ye4iT-XWdY-mnnjZ5-3" target="8j3Ye4iT-XWdY-mnnjZ5-85">
          <mxGeometry relative="1" as="geometry" />
        </mxCell>
        <mxCell id="8j3Ye4iT-XWdY-mnnjZ5-3" value="Admin" style="shape=umlActor;verticalLabelPosition=bottom;verticalAlign=top;html=1;outlineConnect=0;" vertex="1" parent="1">
          <mxGeometry x="320" y="325" width="30" height="60" as="geometry" />
        </mxCell>
        <mxCell id="8j3Ye4iT-XWdY-mnnjZ5-50" style="edgeStyle=orthogonalEdgeStyle;rounded=0;orthogonalLoop=1;jettySize=auto;html=1;" edge="1" parent="1" source="8j3Ye4iT-XWdY-mnnjZ5-4" target="8j3Ye4iT-XWdY-mnnjZ5-36">
          <mxGeometry relative="1" as="geometry" />
        </mxCell>
        <mxCell id="8j3Ye4iT-XWdY-mnnjZ5-52" style="edgeStyle=orthogonalEdgeStyle;rounded=0;orthogonalLoop=1;jettySize=auto;html=1;entryX=1;entryY=0.5;entryDx=0;entryDy=0;" edge="1" parent="1" source="8j3Ye4iT-XWdY-mnnjZ5-4" target="8j3Ye4iT-XWdY-mnnjZ5-23">
          <mxGeometry relative="1" as="geometry" />
        </mxCell>
        <mxCell id="8j3Ye4iT-XWdY-mnnjZ5-71" style="edgeStyle=orthogonalEdgeStyle;rounded=0;orthogonalLoop=1;jettySize=auto;html=1;entryX=0;entryY=0.5;entryDx=0;entryDy=0;" edge="1" parent="1" source="8j3Ye4iT-XWdY-mnnjZ5-4" target="8j3Ye4iT-XWdY-mnnjZ5-22">
          <mxGeometry relative="1" as="geometry" />
        </mxCell>
        <mxCell id="8j3Ye4iT-XWdY-mnnjZ5-82" value="" style="edgeStyle=orthogonalEdgeStyle;rounded=0;orthogonalLoop=1;jettySize=auto;html=1;" edge="1" parent="1" source="8j3Ye4iT-XWdY-mnnjZ5-4" target="8j3Ye4iT-XWdY-mnnjZ5-80">
          <mxGeometry relative="1" as="geometry" />
        </mxCell>
        <mxCell id="8j3Ye4iT-XWdY-mnnjZ5-4" value="Pharmacist" style="shape=umlActor;verticalLabelPosition=bottom;verticalAlign=top;html=1;outlineConnect=0;" vertex="1" parent="1">
          <mxGeometry x="50" y="380" width="30" height="60" as="geometry" />
        </mxCell>
        <mxCell id="8j3Ye4iT-XWdY-mnnjZ5-6" value="Login system" style="ellipse;whiteSpace=wrap;html=1;" vertex="1" parent="1">
          <mxGeometry x="-300" y="90" width="110" height="40" as="geometry" />
        </mxCell>
        <mxCell id="8j3Ye4iT-XWdY-mnnjZ5-7" value="Create&amp;nbsp;prescription" style="ellipse;whiteSpace=wrap;html=1;" vertex="1" parent="1">
          <mxGeometry x="480" y="-60" width="110" height="50" as="geometry" />
        </mxCell>
        <mxCell id="8j3Ye4iT-XWdY-mnnjZ5-8" value="View the list of patients examined during the day" style="ellipse;whiteSpace=wrap;html=1;" vertex="1" parent="1">
          <mxGeometry x="480" y="160" width="140" height="50" as="geometry" />
        </mxCell>
        <mxCell id="8j3Ye4iT-XWdY-mnnjZ5-9" value="View each patient&#39;s medical history" style="ellipse;whiteSpace=wrap;html=1;" vertex="1" parent="1">
          <mxGeometry x="680" y="-20" width="140" height="50" as="geometry" />
        </mxCell>
        <mxCell id="8j3Ye4iT-XWdY-mnnjZ5-10" value="Logout system" style="ellipse;whiteSpace=wrap;html=1;" vertex="1" parent="1">
          <mxGeometry x="-480" y="220" width="140" height="50" as="geometry" />
        </mxCell>
        <mxCell id="8j3Ye4iT-XWdY-mnnjZ5-46" style="edgeStyle=orthogonalEdgeStyle;rounded=0;orthogonalLoop=1;jettySize=auto;html=1;" edge="1" parent="1" source="8j3Ye4iT-XWdY-mnnjZ5-11" target="8j3Ye4iT-XWdY-mnnjZ5-10">
          <mxGeometry relative="1" as="geometry" />
        </mxCell>
        <mxCell id="8j3Ye4iT-XWdY-mnnjZ5-47" style="edgeStyle=orthogonalEdgeStyle;rounded=0;orthogonalLoop=1;jettySize=auto;html=1;" edge="1" parent="1" source="8j3Ye4iT-XWdY-mnnjZ5-11" target="8j3Ye4iT-XWdY-mnnjZ5-6">
          <mxGeometry relative="1" as="geometry" />
        </mxCell>
        <mxCell id="8j3Ye4iT-XWdY-mnnjZ5-11" value="User" style="shape=umlActor;verticalLabelPosition=bottom;verticalAlign=top;html=1;" vertex="1" parent="1">
          <mxGeometry x="55" y="170" width="30" height="60" as="geometry" />
        </mxCell>
        <mxCell id="8j3Ye4iT-XWdY-mnnjZ5-14" value="View drug information available in the drug store" style="ellipse;whiteSpace=wrap;html=1;" vertex="1" parent="1">
          <mxGeometry x="480" y="250" width="140" height="60" as="geometry" />
        </mxCell>
        <mxCell id="8j3Ye4iT-XWdY-mnnjZ5-15" value="Mark the patient as examined" style="ellipse;whiteSpace=wrap;html=1;" vertex="1" parent="1">
          <mxGeometry x="480" y="60" width="140" height="50" as="geometry" />
        </mxCell>
        <mxCell id="8j3Ye4iT-XWdY-mnnjZ5-19" value="search doctor" style="ellipse;whiteSpace=wrap;html=1;" vertex="1" parent="1">
          <mxGeometry x="280" y="-230" width="140" height="40" as="geometry" />
        </mxCell>
        <mxCell id="8j3Ye4iT-XWdY-mnnjZ5-20" value="search employee" style="ellipse;whiteSpace=wrap;html=1;" vertex="1" parent="1">
          <mxGeometry x="660" y="530" width="140" height="40" as="geometry" />
        </mxCell>
        <mxCell id="8j3Ye4iT-XWdY-mnnjZ5-22" value="View each patient&#39;s prescription" style="ellipse;whiteSpace=wrap;html=1;" vertex="1" parent="1">
          <mxGeometry x="180" y="460" width="140" height="70" as="geometry" />
        </mxCell>
        <mxCell id="8j3Ye4iT-XWdY-mnnjZ5-23" value="Mark the medicine for the patient" style="ellipse;whiteSpace=wrap;html=1;" vertex="1" parent="1">
          <mxGeometry x="-270" y="500" width="140" height="70" as="geometry" />
        </mxCell>
        <mxCell id="8j3Ye4iT-XWdY-mnnjZ5-24" value="Update drug information added to the drug warehouse" style="ellipse;whiteSpace=wrap;html=1;" vertex="1" parent="1">
          <mxGeometry x="-530" y="365" width="140" height="90" as="geometry" />
        </mxCell>
        <mxCell id="8j3Ye4iT-XWdY-mnnjZ5-25" value="Add, delete, edit employee information" style="ellipse;whiteSpace=wrap;html=1;" vertex="1" parent="1">
          <mxGeometry x="470" y="520" width="140" height="60" as="geometry" />
        </mxCell>
        <mxCell id="8j3Ye4iT-XWdY-mnnjZ5-26" value="View customer reviews" style="ellipse;whiteSpace=wrap;html=1;" vertex="1" parent="1">
          <mxGeometry x="470" y="315" width="140" height="50" as="geometry" />
        </mxCell>
        <mxCell id="8j3Ye4iT-XWdY-mnnjZ5-28" value="Make an appointment with your doctor" style="ellipse;whiteSpace=wrap;html=1;" vertex="1" parent="1">
          <mxGeometry x="10" y="-410" width="140" height="60" as="geometry" />
        </mxCell>
        <mxCell id="8j3Ye4iT-XWdY-mnnjZ5-29" value="view doctor&#39;s information" style="ellipse;whiteSpace=wrap;html=1;" vertex="1" parent="1">
          <mxGeometry x="355" y="-135" width="140" height="40" as="geometry" />
        </mxCell>
        <mxCell id="8j3Ye4iT-XWdY-mnnjZ5-36" value="Receiving drugs into the drug warehouse" style="ellipse;whiteSpace=wrap;html=1;" vertex="1" parent="1">
          <mxGeometry x="-300" y="375" width="140" height="70" as="geometry" />
        </mxCell>
        <mxCell id="8j3Ye4iT-XWdY-mnnjZ5-39" value="Check if the medicine is still in the medicine warehouse" style="ellipse;whiteSpace=wrap;html=1;" vertex="1" parent="1">
          <mxGeometry x="690" y="80" width="140" height="70" as="geometry" />
        </mxCell>
        <mxCell id="8j3Ye4iT-XWdY-mnnjZ5-40" value="" style="edgeStyle=none;html=1;endArrow=block;endFill=0;endSize=12;verticalAlign=bottom;rounded=0;exitX=0.5;exitY=0.5;exitDx=0;exitDy=0;exitPerimeter=0;" edge="1" parent="1" source="8j3Ye4iT-XWdY-mnnjZ5-4" target="8j3Ye4iT-XWdY-mnnjZ5-11">
          <mxGeometry width="160" relative="1" as="geometry">
            <mxPoint x="400" y="450" as="sourcePoint" />
            <mxPoint x="560" y="450" as="targetPoint" />
          </mxGeometry>
        </mxCell>
        <mxCell id="8j3Ye4iT-XWdY-mnnjZ5-41" value="" style="edgeStyle=none;html=1;endArrow=block;endFill=0;endSize=12;verticalAlign=bottom;rounded=0;exitX=0.5;exitY=0.5;exitDx=0;exitDy=0;exitPerimeter=0;" edge="1" parent="1" source="8j3Ye4iT-XWdY-mnnjZ5-3" target="8j3Ye4iT-XWdY-mnnjZ5-11">
          <mxGeometry width="160" relative="1" as="geometry">
            <mxPoint x="400" y="260" as="sourcePoint" />
            <mxPoint x="560" y="260" as="targetPoint" />
          </mxGeometry>
        </mxCell>
        <mxCell id="8j3Ye4iT-XWdY-mnnjZ5-42" value="" style="edgeStyle=none;html=1;endArrow=block;endFill=0;endSize=12;verticalAlign=bottom;rounded=0;entryX=0.5;entryY=0.5;entryDx=0;entryDy=0;entryPerimeter=0;" edge="1" parent="1" source="8j3Ye4iT-XWdY-mnnjZ5-2" target="8j3Ye4iT-XWdY-mnnjZ5-11">
          <mxGeometry width="160" relative="1" as="geometry">
            <mxPoint x="400" y="260" as="sourcePoint" />
            <mxPoint x="560" y="260" as="targetPoint" />
          </mxGeometry>
        </mxCell>
        <mxCell id="8j3Ye4iT-XWdY-mnnjZ5-54" value="Check account existence" style="ellipse;whiteSpace=wrap;html=1;" vertex="1" parent="1">
          <mxGeometry x="-170" y="10" width="140" height="50" as="geometry" />
        </mxCell>
        <mxCell id="8j3Ye4iT-XWdY-mnnjZ5-56" value="&amp;lt;&amp;lt;include&amp;gt;&amp;gt;" style="edgeStyle=none;html=1;endArrow=open;verticalAlign=bottom;dashed=1;labelBackgroundColor=none;rounded=0;entryX=1;entryY=0.5;entryDx=0;entryDy=0;exitX=0;exitY=0.5;exitDx=0;exitDy=0;" edge="1" parent="1" source="8j3Ye4iT-XWdY-mnnjZ5-36" target="8j3Ye4iT-XWdY-mnnjZ5-24">
          <mxGeometry width="160" relative="1" as="geometry">
            <mxPoint x="-90" y="510" as="sourcePoint" />
            <mxPoint x="70" y="510" as="targetPoint" />
          </mxGeometry>
        </mxCell>
        <mxCell id="8j3Ye4iT-XWdY-mnnjZ5-57" value="&amp;lt;&amp;lt;include&amp;gt;&amp;gt;" style="edgeStyle=none;html=1;endArrow=open;verticalAlign=bottom;dashed=1;labelBackgroundColor=none;rounded=0;exitX=0;exitY=0.5;exitDx=0;exitDy=0;entryX=0.936;entryY=0.802;entryDx=0;entryDy=0;entryPerimeter=0;" edge="1" parent="1" source="8j3Ye4iT-XWdY-mnnjZ5-23" target="8j3Ye4iT-XWdY-mnnjZ5-24">
          <mxGeometry width="160" relative="1" as="geometry">
            <mxPoint x="-90" y="510" as="sourcePoint" />
            <mxPoint x="70" y="510" as="targetPoint" />
          </mxGeometry>
        </mxCell>
        <mxCell id="8j3Ye4iT-XWdY-mnnjZ5-58" value="&amp;lt;&amp;lt;include&amp;gt;&amp;gt;" style="edgeStyle=none;html=1;endArrow=open;verticalAlign=bottom;dashed=1;labelBackgroundColor=none;rounded=0;exitX=1;exitY=0;exitDx=0;exitDy=0;entryX=0;entryY=1;entryDx=0;entryDy=0;" edge="1" parent="1" source="8j3Ye4iT-XWdY-mnnjZ5-6" target="8j3Ye4iT-XWdY-mnnjZ5-54">
          <mxGeometry width="160" relative="1" as="geometry">
            <mxPoint x="-90" y="210" as="sourcePoint" />
            <mxPoint x="70" y="210" as="targetPoint" />
          </mxGeometry>
        </mxCell>
        <mxCell id="8j3Ye4iT-XWdY-mnnjZ5-66" value="&amp;lt;&amp;lt;include&amp;gt;&amp;gt;" style="edgeStyle=none;html=1;endArrow=open;verticalAlign=bottom;dashed=1;labelBackgroundColor=none;rounded=0;exitX=1;exitY=0.5;exitDx=0;exitDy=0;" edge="1" parent="1" source="8j3Ye4iT-XWdY-mnnjZ5-7" target="8j3Ye4iT-XWdY-mnnjZ5-9">
          <mxGeometry width="160" relative="1" as="geometry">
            <mxPoint x="440" y="50" as="sourcePoint" />
            <mxPoint x="600" y="50" as="targetPoint" />
          </mxGeometry>
        </mxCell>
        <mxCell id="8j3Ye4iT-XWdY-mnnjZ5-67" style="edgeStyle=orthogonalEdgeStyle;rounded=0;orthogonalLoop=1;jettySize=auto;html=1;entryX=0;entryY=0.5;entryDx=0;entryDy=0;" edge="1" parent="1" source="8j3Ye4iT-XWdY-mnnjZ5-2" target="8j3Ye4iT-XWdY-mnnjZ5-14">
          <mxGeometry relative="1" as="geometry" />
        </mxCell>
        <mxCell id="8j3Ye4iT-XWdY-mnnjZ5-69" value="&amp;lt;&amp;lt;extend&amp;gt;&amp;gt;" style="edgeStyle=none;html=1;startArrow=open;endArrow=none;startSize=12;verticalAlign=bottom;dashed=1;labelBackgroundColor=none;rounded=0;entryX=0.5;entryY=1;entryDx=0;entryDy=0;" edge="1" parent="1" source="8j3Ye4iT-XWdY-mnnjZ5-15" target="8j3Ye4iT-XWdY-mnnjZ5-7">
          <mxGeometry width="160" relative="1" as="geometry">
            <mxPoint x="440" y="150" as="sourcePoint" />
            <mxPoint x="600" y="150" as="targetPoint" />
          </mxGeometry>
        </mxCell>
        <mxCell id="8j3Ye4iT-XWdY-mnnjZ5-70" value="&amp;lt;&amp;lt;extend&amp;gt;&amp;gt;" style="edgeStyle=none;html=1;startArrow=open;endArrow=none;startSize=12;verticalAlign=bottom;dashed=1;labelBackgroundColor=none;rounded=0;exitX=1;exitY=1;exitDx=0;exitDy=0;" edge="1" parent="1" source="8j3Ye4iT-XWdY-mnnjZ5-7" target="8j3Ye4iT-XWdY-mnnjZ5-39">
          <mxGeometry width="160" relative="1" as="geometry">
            <mxPoint x="440" y="50" as="sourcePoint" />
            <mxPoint x="600" y="50" as="targetPoint" />
          </mxGeometry>
        </mxCell>
        <mxCell id="8j3Ye4iT-XWdY-mnnjZ5-72" style="edgeStyle=orthogonalEdgeStyle;rounded=0;orthogonalLoop=1;jettySize=auto;html=1;entryX=0;entryY=0.5;entryDx=0;entryDy=0;" edge="1" parent="1" source="8j3Ye4iT-XWdY-mnnjZ5-3" target="8j3Ye4iT-XWdY-mnnjZ5-26">
          <mxGeometry relative="1" as="geometry" />
        </mxCell>
        <mxCell id="8j3Ye4iT-XWdY-mnnjZ5-73" style="edgeStyle=orthogonalEdgeStyle;rounded=0;orthogonalLoop=1;jettySize=auto;html=1;entryX=0.001;entryY=0.667;entryDx=0;entryDy=0;entryPerimeter=0;" edge="1" parent="1" source="8j3Ye4iT-XWdY-mnnjZ5-2" target="8j3Ye4iT-XWdY-mnnjZ5-8">
          <mxGeometry relative="1" as="geometry" />
        </mxCell>
        <mxCell id="8j3Ye4iT-XWdY-mnnjZ5-75" value="&amp;lt;&amp;lt;extend&amp;gt;&amp;gt;" style="edgeStyle=none;html=1;startArrow=open;endArrow=none;startSize=12;verticalAlign=bottom;dashed=1;labelBackgroundColor=none;rounded=0;exitX=1;exitY=0.5;exitDx=0;exitDy=0;entryX=0;entryY=0.5;entryDx=0;entryDy=0;" edge="1" parent="1" source="8j3Ye4iT-XWdY-mnnjZ5-25" target="8j3Ye4iT-XWdY-mnnjZ5-20">
          <mxGeometry width="160" relative="1" as="geometry">
            <mxPoint x="650" y="520" as="sourcePoint" />
            <mxPoint x="810" y="520" as="targetPoint" />
          </mxGeometry>
        </mxCell>
        <mxCell id="8j3Ye4iT-XWdY-mnnjZ5-77" value="Update Revenue and Expenses" style="ellipse;whiteSpace=wrap;html=1;" vertex="1" parent="1">
          <mxGeometry x="-530" y="500" width="140" height="70" as="geometry" />
        </mxCell>
        <mxCell id="8j3Ye4iT-XWdY-mnnjZ5-78" value="&amp;lt;&amp;lt;include&amp;gt;&amp;gt;" style="edgeStyle=none;html=1;endArrow=open;verticalAlign=bottom;dashed=1;labelBackgroundColor=none;rounded=0;entryX=1;entryY=0.5;entryDx=0;entryDy=0;exitX=0;exitY=0.5;exitDx=0;exitDy=0;" edge="1" parent="1" source="8j3Ye4iT-XWdY-mnnjZ5-23" target="8j3Ye4iT-XWdY-mnnjZ5-77">
          <mxGeometry width="160" relative="1" as="geometry">
            <mxPoint x="-190" y="600" as="sourcePoint" />
            <mxPoint x="-30" y="600" as="targetPoint" />
          </mxGeometry>
        </mxCell>
        <mxCell id="8j3Ye4iT-XWdY-mnnjZ5-79" value="&amp;lt;&amp;lt;include&amp;gt;&amp;gt;" style="edgeStyle=none;html=1;endArrow=open;verticalAlign=bottom;dashed=1;labelBackgroundColor=none;rounded=0;exitX=0;exitY=1;exitDx=0;exitDy=0;" edge="1" parent="1" source="8j3Ye4iT-XWdY-mnnjZ5-36" target="8j3Ye4iT-XWdY-mnnjZ5-77">
          <mxGeometry width="160" relative="1" as="geometry">
            <mxPoint x="-380" y="520" as="sourcePoint" />
            <mxPoint x="-220" y="520" as="targetPoint" />
          </mxGeometry>
        </mxCell>
        <mxCell id="8j3Ye4iT-XWdY-mnnjZ5-80" value="create invoice" style="ellipse;whiteSpace=wrap;html=1;" vertex="1" parent="1">
          <mxGeometry x="30" y="550" width="140" height="70" as="geometry" />
        </mxCell>
        <mxCell id="8j3Ye4iT-XWdY-mnnjZ5-81" value="&amp;lt;&amp;lt;extend&amp;gt;&amp;gt;" style="edgeStyle=none;html=1;startArrow=open;endArrow=none;startSize=12;verticalAlign=bottom;dashed=1;labelBackgroundColor=none;rounded=0;" edge="1" parent="1" source="8j3Ye4iT-XWdY-mnnjZ5-80" target="8j3Ye4iT-XWdY-mnnjZ5-22">
          <mxGeometry width="160" relative="1" as="geometry">
            <mxPoint x="-70" y="490" as="sourcePoint" />
            <mxPoint x="90" y="490" as="targetPoint" />
          </mxGeometry>
        </mxCell>
        <mxCell id="8j3Ye4iT-XWdY-mnnjZ5-83" value="&amp;lt;&amp;lt;include&amp;gt;&amp;gt;" style="edgeStyle=none;html=1;endArrow=open;verticalAlign=bottom;dashed=1;labelBackgroundColor=none;rounded=0;exitX=0.5;exitY=1;exitDx=0;exitDy=0;entryX=0;entryY=0.5;entryDx=0;entryDy=0;" edge="1" parent="1" source="8j3Ye4iT-XWdY-mnnjZ5-23" target="8j3Ye4iT-XWdY-mnnjZ5-80">
          <mxGeometry width="160" relative="1" as="geometry">
            <mxPoint x="-190" y="610" as="sourcePoint" />
            <mxPoint x="-30" y="610" as="targetPoint" />
          </mxGeometry>
        </mxCell>
        <mxCell id="8j3Ye4iT-XWdY-mnnjZ5-85" value="create statistics" style="ellipse;whiteSpace=wrap;html=1;" vertex="1" parent="1">
          <mxGeometry x="470" y="410" width="140" height="40" as="geometry" />
        </mxCell>
      </root>
    </mxGraphModel>
  </diagram>
</mxfile>
